<?xml version="1.0" encoding="UTF-8" standalone="no"?>
<svg width="136" height="30px" viewBox="0 0 288 90" version="1.1" xmlns="http://www.w3.org/2000/svg" xmlns:xlink="http://www.w3.org/1999/xlink" xmlns:sketch="http://www.bohemiancoding.com/sketch/ns">
    <title>edpanel</title>
    <defs>
        <path id="path-1" d="M47.3333266,211.666655 L332.666653,211.666655 L332.666653,123.666658 L47.3333266,123.666658 L47.3333266,211.666655 Z"></path>
    </defs>
    <g id="Page-1" stroke="none" stroke-width="1" fill="none" fill-rule="evenodd" sketch:type="MSPage">
        <g id="g10" sketch:type="MSLayerGroup" transform="translate(-46.000000, -91.000000)">
            <g transform="translate(189.500000, 152.500000) scale(1, -1) translate(-189.500000, -152.500000) " id="g12">
                <g>
                    <g id="g14-Clipped">
                        <mask id="mask-2" sketch:name="path16" fill="white">
                            <use xlink:href="#path-1"></use>
                        </mask>
                        <g id="path16"></g>
                        <g id="g14" mask="url(#mask-2)">
                            <g transform="translate(47.333327, 123.666658)">
                                <g id="g20" stroke-width="1" fill="none" sketch:type="MSLayerGroup" transform="translate(89.794264, 2.144533)">
                                    <path d="M17.3333329,45.3333322 C18.0813329,45.0839989 18.9546662,45.0839989 19.9519995,45.0839989 C28.1799993,45.0839989 31.9199992,50.9439987 31.9199992,58.7986652 C31.9199992,66.1533317 28.9279993,71.8893315 21.3226661,71.8893315 C19.8266662,71.8893315 18.3306662,71.6386649 17.3333329,71.2653316 L17.3333329,45.3333322 Z M1.00133331,83.4839979 C5.61333319,84.4813312 11.8479997,85.1039979 18.0813329,85.1039979 C27.8053326,85.1039979 35.4106658,83.7333312 40.8973323,78.6213314 C45.8839989,74.2573315 48.1279988,67.2759983 48.1279988,60.1693318 C48.1279988,51.0679987 45.3839989,44.7093322 41.0213323,39.971999 C35.7853324,34.4866658 27.306666,31.9933325 20.5746662,31.9933325 L17.3333329,31.9933325 L17.3333329,0.698666649 L1.00133331,0.698666649 L1.00133331,83.4839979 Z" id="path22" fill="#969595" sketch:type="MSShapeGroup"></path>
                                </g>
                                <g id="g24" stroke-width="1" fill="none" sketch:type="MSLayerGroup" transform="translate(136.846397, 0.865867)">
                                    <path d="M25.3333327,27.9999993 C20.5226662,27.890666 13.9626663,26.3599993 13.9626663,18.9253329 C13.9626663,13.5679997 16.9146662,11.5999997 19.0999995,11.5999997 C21.3973328,11.5999997 24.0213327,13.0226663 25.0053327,16.1919996 C25.2239994,16.9573329 25.3333327,17.8319996 25.3333327,18.7066662 L25.3333327,27.9999993 Z M27.3013327,1.97733328 L26.534666,7.22666649 L26.3159993,7.22666649 C23.3653327,3.07199992 19.2093329,1.10399997 14.509333,1.10399997 C6.41733317,1.10399997 0.405333323,7.88266647 0.405333323,17.3946662 C0.405333323,31.3893325 12.7586663,37.1839991 24.8959994,37.2933324 L24.8959994,38.495999 C24.8959994,42.6506656 22.3813328,45.7119989 17.3519996,45.7119989 C13.0866663,45.7119989 9.58933309,44.6186656 6.41733317,42.6506656 L3.79466657,52.2719987 C6.7466665,54.021332 12.977333,56.3173319 20.4133328,56.3173319 C36.7039991,56.3173319 39.327999,44.9466655 39.327999,34.1226658 L39.327999,14.2239996 C39.327999,9.95999975 39.5453323,5.58666653 40.2013323,1.97733328 L27.3013327,1.97733328 Z" id="path26" fill="#969595" sketch:type="MSShapeGroup"></path>
                                </g>
                                <g id="g28" stroke-width="1" fill="none" sketch:type="MSLayerGroup" transform="translate(180.962262, 1.570267)">
                                    <path d="M1.3333333,38.6666657 C1.3333333,44.5706656 1.00533331,49.7093321 0.895999978,54.7386653 L13.2506663,54.7386653 L13.9079997,48.6159988 L14.1266663,48.6159988 C16.9693329,52.8799987 21.5613328,55.6133319 27.1373327,55.6133319 C37.3053324,55.6133319 41.3506656,47.5226655 41.3506656,35.6053324 L41.3506656,1.2733333 L27.0279993,1.2733333 L27.0279993,34.7306658 C27.0279993,39.3226657 25.934666,43.5866656 21.7786661,43.5866656 C19.3746662,43.5866656 17.4066662,41.9466656 16.4213329,38.775999 C15.9839996,37.6826657 15.6559996,35.9333324 15.6559996,33.8559992 L15.6559996,1.2733333 L1.3333333,1.2733333 L1.3333333,38.6666657 Z" id="path30" fill="#969595" sketch:type="MSShapeGroup"></path>
                                </g>
                                <g id="g32" stroke-width="1" fill="none" sketch:type="MSLayerGroup" transform="translate(226.368528, 1.218133)">
                                    <path d="M26.666666,33.3333325 C26.666666,40.2213323 24.9173327,45.5786655 20.6519995,45.5786655 C15.9506663,45.5786655 14.0919996,38.6906657 13.9826663,33.3333325 L26.666666,33.3333325 Z M13.873333,23.2746661 C14.0919996,14.965333 18.9039995,11.9039997 25.2453327,11.9039997 C29.2906659,11.9039997 32.8986658,12.7786663 35.4133324,13.653333 L37.3799991,3.37599992 C33.6639992,1.95333328 28.086666,0.969333309 22.6199994,0.969333309 C8.0799998,0.969333309 0.0973333309,10.5919997 0.0973333309,27.3199993 C0.0973333309,45.2506655 9.39066643,55.9653319 21.5279995,55.9653319 C33.0079992,55.9653319 39.6773323,46.8906655 39.6773323,30.7093326 C39.6773323,26.882666 39.567999,24.8053327 39.239999,23.2746661 L13.873333,23.2746661 Z" id="path34" fill="#969595" sketch:type="MSShapeGroup"></path>
                                </g>
                                <path d="M270.089327,78.503998 L284.411993,78.503998 L284.411993,2.84399993 L270.089327,2.84399993 L270.089327,78.503998 Z" id="path36" fill="#969595" sketch:type="MSShapeGroup"></path>
                                <g id="g38" stroke-width="1" fill="none" sketch:type="MSLayerGroup" transform="translate(0.031200, 2.199867)">
                                    <path d="M34.6666658,37.3333324 L16.3519996,37.3333324 L16.3519996,14.6439996 L37.0466657,14.6439996 L37.0466657,0.433333322 L0.773333314,0.433333322 L0.773333314,84.4559979 L35.6199991,84.4559979 L35.6199991,70.2439982 L16.3519996,70.2439982 L16.3519996,50.9213321 L34.6666658,50.9213321 L34.6666658,37.3333324 Z" id="path40" fill="#969595" sketch:type="MSShapeGroup"></path>
                                </g>
                                <g id="g42" stroke-width="1" fill="none" sketch:type="MSLayerGroup" transform="translate(40.768266, 1.066400)">
                                    <path d="M30.6666659,39.999999 C29.9533326,40.2493323 29.1199993,40.2493323 28.1693326,40.2493323 C20.3199995,40.2493323 16.7519996,34.3893325 16.7519996,26.5359993 C16.7519996,19.1813329 19.6066662,13.4466663 26.8599993,13.4466663 C28.286666,13.4466663 29.7133326,13.6946663 30.6666659,14.069333 L30.6666659,39.999999 Z M46.2453322,1.85333329 C41.8453323,0.855999979 35.8986658,0.231999994 29.9533326,0.231999994 C20.6773328,0.231999994 13.421333,1.60266663 8.18933313,6.7146665 C3.43199991,11.0773331 1.29199997,18.0586662 1.29199997,25.1653327 C1.29199997,34.2653325 3.9079999,40.6226657 8.07066646,45.3613322 C13.065333,50.8453321 21.1506661,53.3386653 27.5733326,53.3386653 L30.6666659,53.3386653 L30.6666659,84.6293312 L46.2453322,84.6293312 L46.2453322,1.85333329 Z" id="path44" fill="#969595" sketch:type="MSShapeGroup"></path>
                                </g>
                            </g>
                        </g>
                    </g>
                </g>
            </g>
        </g>
    </g>
</svg>
