<?xml version="1.0" encoding="utf-8"?>
<!-- Generator: Adobe Illustrator 15.0.2, SVG Export Plug-In . SVG Version: 6.00 Build 0)  -->
<!DOCTYPE svg PUBLIC "-//W3C//DTD SVG 1.1//EN" "http://www.w3.org/Graphics/SVG/1.1/DTD/svg11.dtd">
<svg width="640" height="480" xmlns="http://www.w3.org/2000/svg">
<path stroke="#BFBFBF" fill="#BFBFBF" d="M29.677,404.759c-5.309,0-10.655-1.407-15.527-4.35c-14.184-8.582-18.725-27.035-10.127-41.224l68.818-113.705
	c5.187-8.57,14.307-13.997,24.316-14.444c9.893-0.459,19.572,4.104,25.537,12.174l27.946,37.898l61.122-102.301
	c5.122-8.563,14.162-14.026,24.114-14.573c10.084-0.538,19.551,3.892,25.587,11.834l53.004,69.902L456.029,14.371
	c8.646-14.152,27.131-18.61,41.277-9.954c14.146,8.646,18.603,27.12,9.957,41.27L342.74,314.843
	c-5.159,8.476-14.199,13.832-24.104,14.328c-9.807,0.512-19.434-3.939-25.425-11.844l-52.719-69.533l-61.474,102.842
	c-5.144,8.624-14.269,14.104-24.316,14.583c-9.914,0.57-19.642-4.072-25.601-12.163l-28.111-38.122l-45.595,75.337
	C49.74,399.599,39.826,404.759,29.677,404.759z"/>
</svg>
