<?xml version="1.0" encoding="utf-8"?>
<!DOCTYPE svg PUBLIC "-//W3C//DTD SVG 1.1//EN" "http://www.w3.org/Graphics/SVG/1.1/DTD/svg11.dtd">
<svg version="1.1" xmlns="http://www.w3.org/2000/svg" xmlns:xlink="http://www.w3.org/1999/xlink" x="0px" y="0px" width="1024px" height="1024px" viewBox="0 0 1024 1024" enable-background="new 0 0 1024 1024" xml:space="preserve">
  <path stroke="#BFBFBF" fill="#BFBFBF" d="M960.772096 456.880128l-420.48 0.207872L540.292096 65.536l-28.785664 0c-246.30272 0-446.6688 200.748032-446.6688 447.488 0 246.745088 200.36608 447.488 446.6688 447.488 246.278144 0 449.265664-201.974784 449.265664-448.719872C960.772096 503.313408 960.772096 456.880128 960.772096 456.880128zM484.360192 443.25376l-213.395456-237.549568c59.680768-47.141888 129.488896-77.5424 213.395456-83.247104L484.360192 443.25376zM484.360192 513.024l419.51744 0c0 215.906304-176.87552 391.552-392.3712 391.552-215.524352 0-390.84544-175.645696-390.84544-391.552 0-104.538112 41.216-199.54688 108.10368-269.835264L484.360192 513.024z" />
<path stroke="#BFBFBF" fill="#BFBFBF" d="M958.094336 371.570688c-10.353664-180.342784-184.82688-306.034688-334.932992-306.034688l-26.929152 0 0 335.616 363.58144 0L958.094336 371.570688zM652.163072 345.216 652.163072 123.139072c111.872 12.873728 224.045056 99.318784 246.636544 222.076928L652.163072 345.216z" />
</svg>
